# xmcd
#
# Track frame offsets:
#	150
#	14550
#	30655
#	46910
#	63699
#	78630
#	95307
#	111705
#	132976
#	150565
#	168584
#	182907
#	202590
#	221517
#	241164
#	259465
#	272731
#	289720
#	307039
#	323800
#	338963
#
# Disc length: 4794 seconds
#
# Revision: 1
# Processed by: cddbd v1.5.2PL0 Copyright (c) Steve Scherf et al.
# Submitted via: audiograbber 1.83.01
#
DISCID=3b12b815
DTITLE=Kelly Clarkson - Greatest Hits: Chapter One
DYEAR=2012
DGENRE=Country
TTITLE0=Since You Been Gone
TTITLE1=My Life Would Suck Without You
TTITLE2=Miss Independent
TTITLE3=Stronger (What Doesn't Kill You)
TTITLE4=Behind These Hazel Eyes
TTITLE5=Because Of You
TTITLE6=Never Again
TTITLE7=Already Gone
TTITLE8=Mr. Know It All
TTITLE9=Breakaway
TTITLE10=Walk Away
TTITLE11=Don't You Wanna Stay (Feat. Kelly Clarkson)
TTITLE12=Catch My Breath
TTITLE13=People Like Us
TTITLE14=Don't Rush (Feat. Vince Gill)
TTITLE15=I'll Be Home For Christmas
TTITLE16=Dark Side
TTITLE17=A Moment Like This
TTITLE18=The Trouble With Love Is
TTITLE19=I Do Not Hook Up
TTITLE20=Beautiful Disaster (Live)
EXTD=
EXTT0=
EXTT1=
EXTT2=
EXTT3=
EXTT4=
EXTT5=
EXTT6=
EXTT7=
EXTT8=
EXTT9=
EXTT10=
EXTT11=
EXTT12=
EXTT13=
EXTT14=
EXTT15=
EXTT16=
EXTT17=
EXTT18=
EXTT19=
EXTT20=
PLAYORDER=
